<?xml version="1.0" encoding="utf-8" standalone="no"?>
<!DOCTYPE svg PUBLIC "-//W3C//DTD SVG 1.1//EN"
  "http://www.w3.org/Graphics/SVG/1.1/DTD/svg11.dtd">
<svg xmlns:xlink="http://www.w3.org/1999/xlink" width="216pt" height="216pt" viewBox="0 0 216 216" xmlns="http://www.w3.org/2000/svg" version="1.1">
 <metadata>
  <rdf:RDF xmlns:dc="http://purl.org/dc/elements/1.1/" xmlns:cc="http://creativecommons.org/ns#" xmlns:rdf="http://www.w3.org/1999/02/22-rdf-syntax-ns#">
   <cc:Work>
    <dc:type rdf:resource="http://purl.org/dc/dcmitype/StillImage"/>
    <dc:date>2024-08-13T00:25:26.882599</dc:date>
    <dc:format>image/svg+xml</dc:format>
    <dc:creator>
     <cc:Agent>
      <dc:title>Matplotlib v3.9.2, https://matplotlib.org/</dc:title>
     </cc:Agent>
    </dc:creator>
   </cc:Work>
  </rdf:RDF>
 </metadata>
 <defs>
  <style type="text/css">*{stroke-linejoin: round; stroke-linecap: butt}</style>
 </defs>
 <g id="figure_1">
  <g id="patch_1">
   <path d="M 0 216 
L 216 216 
L 216 0 
L 0 0 
L 0 216 
z
" style="fill: none"/>
  </g>
  <g id="axes_1">
   <g id="patch_2">
    <path d="M 27 192.24 
L 194.4 192.24 
L 194.4 25.92 
L 27 25.92 
L 27 192.24 
z
" style="fill: none"/>
   </g>
   <g id="patch_3">
    <path d="M 52.011529 191.848659 
L 169.388471 191.848659 
Q 194.006118 191.848659 194.006118 167.389835 
L 194.006118 50.770165 
Q 194.006118 26.311341 169.388471 26.311341 
L 52.011529 26.311341 
Q 27.393882 26.311341 27.393882 50.770165 
L 27.393882 167.389835 
Q 27.393882 191.848659 52.011529 191.848659 
z
" clip-path="url(#pf2aa21358d)"/>
   </g>
   <g id="matplotlib.axis_1">
    <g id="xtick_1"/>
    <g id="xtick_2"/>
    <g id="xtick_3"/>
   </g>
   <g id="matplotlib.axis_2">
    <g id="ytick_1"/>
    <g id="ytick_2"/>
    <g id="ytick_3"/>
    <g id="ytick_4"/>
    <g id="ytick_5"/>
    <g id="ytick_6"/>
    <g id="ytick_7"/>
   </g>
   <g id="line2d_1">
    <path d="M 65.403529 135.98781 
L 67.177774 135.411651 
L 68.754881 134.678653 
L 70.233418 133.75603 
L 71.711955 132.565729 
L 73.190493 131.077075 
L 74.66903 129.274221 
L 76.344706 126.85957 
L 78.316089 123.585717 
L 81.864579 117.122229 
L 84.0331 113.431943 
L 85.511638 111.323464 
L 86.694467 109.983662 
L 87.778728 109.080058 
L 88.76442 108.555712 
L 89.651542 108.337636 
L 90.538665 108.362703 
L 91.425787 108.625995 
L 92.312909 109.115338 
L 93.39717 109.992062 
L 94.58 111.244676 
L 96.157107 113.263582 
L 101.085564 119.842506 
L 102.366963 121.047397 
L 103.451224 121.755001 
L 104.338347 122.086089 
L 105.225469 122.170497 
L 106.014022 122.023241 
L 106.802576 121.654923 
L 107.591129 121.055705 
L 108.478251 120.095006 
L 109.463943 118.659615 
L 110.449634 116.825745 
L 111.533895 114.338151 
L 112.716725 111.05617 
L 113.998124 106.836313 
L 115.476661 101.145244 
L 117.152337 93.753233 
L 119.419428 82.644069 
L 122.67221 66.730759 
L 124.052178 61.058087 
L 125.136439 57.479493 
L 126.023561 55.288431 
L 126.713545 54.115391 
L 127.30496 53.515572 
L 127.797806 53.319041 
L 128.192083 53.368034 
L 128.684928 53.693946 
L 129.177774 54.319238 
L 129.769189 55.468785 
L 130.459173 57.359109 
L 131.247727 60.228464 
L 132.134849 64.315782 
L 133.21911 70.42968 
L 134.599078 79.67566 
L 136.570461 94.7013 
L 140.020382 121.133325 
L 141.498919 130.719438 
L 142.780318 137.627641 
L 143.864579 142.335745 
L 144.85027 145.687367 
L 145.737393 147.965823 
L 146.525946 149.436147 
L 147.21593 150.325705 
L 147.905914 150.87743 
L 148.595898 151.126179 
L 149.285882 151.109026 
L 149.975866 150.864061 
L 150.76442 150.353849 
L 151.750111 149.450759 
L 153.130079 147.866578 
L 157.959968 142.051692 
L 159.537075 140.609141 
L 161.015612 139.538809 
L 162.592719 138.676591 
L 163.874118 138.159001 
L 163.874118 138.159001 
" clip-path="url(#pf2aa21358d)" style="fill: none; stroke: #00857c; stroke-opacity: 0.5; stroke-width: 7; stroke-linecap: square"/>
   </g>
   <g id="line2d_2">
    <path d="M 57.525882 149.684751 
L 59.300127 149.108592 
L 60.877234 148.375594 
L 62.355771 147.452971 
L 63.834308 146.26267 
L 65.312846 144.774016 
L 66.791383 142.971163 
L 68.467059 140.556511 
L 70.438442 137.282659 
L 73.986932 130.819171 
L 76.155453 127.128884 
L 77.63399 125.020406 
L 78.81682 123.680603 
L 79.901081 122.776999 
L 80.886773 122.252654 
L 81.773895 122.034577 
L 82.661017 122.059644 
L 83.54814 122.322936 
L 84.435262 122.812279 
L 85.519523 123.689003 
L 86.702353 124.941617 
L 88.279459 126.960524 
L 93.207917 133.539447 
L 94.489316 134.744339 
L 95.573577 135.451943 
L 96.4607 135.783031 
L 97.347822 135.867438 
L 98.136375 135.720182 
L 98.924928 135.351864 
L 99.713482 134.752646 
L 100.600604 133.791947 
L 101.586296 132.356557 
L 102.571987 130.522686 
L 103.656248 128.035092 
L 104.839078 124.753112 
L 106.120477 120.533254 
L 107.599014 114.842185 
L 109.27469 107.450174 
L 111.541781 96.34101 
L 114.794563 80.4277 
L 116.174531 74.755028 
L 117.258792 71.176434 
L 118.145914 68.985372 
L 118.835898 67.812332 
L 119.427313 67.212513 
L 119.920159 67.015982 
L 120.314436 67.064975 
L 120.807281 67.390887 
L 121.300127 68.016179 
L 121.891542 69.165727 
L 122.581526 71.05605 
L 123.370079 73.925405 
L 124.257202 78.012723 
L 125.341463 84.126621 
L 126.721431 93.372601 
L 128.692814 108.398241 
L 132.142734 134.830266 
L 133.621272 144.41638 
L 134.902671 151.324582 
L 135.986932 156.032686 
L 136.972623 159.384309 
L 137.859746 161.662764 
L 138.648299 163.133089 
L 139.338283 164.022646 
L 140.028267 164.574372 
L 140.718251 164.82312 
L 141.408235 164.805967 
L 142.098219 164.561003 
L 142.886773 164.05079 
L 143.872464 163.1477 
L 145.252432 161.56352 
L 150.082321 155.748633 
L 151.659428 154.306082 
L 153.137965 153.23575 
L 154.715072 152.373532 
L 155.996471 151.855943 
L 155.996471 151.855943 
" clip-path="url(#pf2aa21358d)" style="fill: none; stroke: #bfed33; stroke-opacity: 0.5; stroke-width: 7; stroke-linecap: square"/>
   </g>
   <g id="line2d_3">
    <path d="M 61.464706 142.836281 
L 63.238951 142.260122 
L 64.816057 141.527123 
L 66.294595 140.604501 
L 67.773132 139.414199 
L 69.251669 137.925545 
L 70.730207 136.122692 
L 72.405882 133.70804 
L 74.377266 130.434188 
L 77.925755 123.9707 
L 80.094277 120.280414 
L 81.572814 118.171935 
L 82.755644 116.832133 
L 83.839905 115.928528 
L 84.825596 115.404183 
L 85.712719 115.186106 
L 86.599841 115.211174 
L 87.486963 115.474465 
L 88.374086 115.963809 
L 89.458347 116.840532 
L 90.641176 118.093146 
L 92.218283 120.112053 
L 97.146741 126.690977 
L 98.42814 127.895868 
L 99.512401 128.603472 
L 100.399523 128.93456 
L 101.286645 129.018967 
L 102.075199 128.871712 
L 102.863752 128.503393 
L 103.652305 127.904175 
L 104.539428 126.943476 
L 105.525119 125.508086 
L 106.510811 123.674216 
L 107.595072 121.186622 
L 108.777901 117.904641 
L 110.0593 113.684783 
L 111.537838 107.993715 
L 113.213514 100.601704 
L 115.480604 89.492539 
L 118.733386 73.57923 
L 120.113355 67.906558 
L 121.197615 64.327964 
L 122.084738 62.136902 
L 122.774722 60.963861 
L 123.366137 60.364043 
L 123.858983 60.167511 
L 124.253259 60.216504 
L 124.746105 60.542416 
L 125.238951 61.167709 
L 125.830366 62.317256 
L 126.52035 64.207579 
L 127.308903 67.076934 
L 128.196025 71.164253 
L 129.280286 77.278151 
L 130.660254 86.52413 
L 132.631638 101.549771 
L 136.081558 127.981796 
L 137.560095 137.567909 
L 138.841494 144.476111 
L 139.925755 149.184216 
L 140.911447 152.535838 
L 141.798569 154.814294 
L 142.587122 156.284618 
L 143.277107 157.174176 
L 143.967091 157.725901 
L 144.657075 157.974649 
L 145.347059 157.957497 
L 146.037043 157.712532 
L 146.825596 157.202319 
L 147.811288 156.29923 
L 149.191256 154.715049 
L 154.021145 148.900162 
L 155.598251 147.457611 
L 157.076789 146.38728 
L 158.653895 145.525062 
L 159.935294 145.007472 
L 159.935294 145.007472 
" clip-path="url(#pf2aa21358d)" style="fill: none; stroke: #ffffff; stroke-width: 10; stroke-linecap: square"/>
   </g>
  </g>
 </g>
 <defs>
  <clipPath id="pf2aa21358d">
   <rect x="27" y="25.92" width="167.4" height="166.32"/>
  </clipPath>
 </defs>
</svg>
